<?xml version="1.0" encoding="utf-8"?>
<!-- Generator: Adobe Illustrator 17.0.0, SVG Export Plug-In . SVG Version: 6.00 Build 0)  -->
<!DOCTYPE svg PUBLIC "-//W3C//DTD SVG 1.1//EN" "http://www.w3.org/Graphics/SVG/1.1/DTD/svg11.dtd">
<svg version="1.1" id="レイヤー_1" xmlns="http://www.w3.org/2000/svg" xmlns:xlink="http://www.w3.org/1999/xlink" x="0px"
	 y="0px" width="24px" height="23.028px" viewBox="0 0 24 23.028" enable-background="new 0 0 24 23.028" xml:space="preserve">
<g id="dog_1_">
	<path id="dog" fill="#BCBBBB" d="M22.347,8.137L20.04,9.672c-0.162,0.118-0.422,0.109-0.577-0.019l-0.496-0.412
		c-0.154-0.129-0.397-0.117-0.54,0.025l-0.783,0.783c-0.142,0.143-0.375,0.143-0.517,0l-2.772-3.003
		c-0.142-0.141-0.142-0.374,0-0.517l2.512-2.512c0.141-0.142,0.259-0.259,0.258-0.259c-0.001,0,0.116-0.117,0.258-0.259l0.992-0.993
		c0.143-0.142,0.445-0.16,0.451,0.041l0.039,1.295c0.006,0.201,0.128,0.481,0.272,0.621l3.279,3.227
		C22.559,7.832,22.509,8.019,22.347,8.137z M16.37,10.843L13.559,7.84c-0.142-0.141-0.375-0.141-0.517,0l-0.278,0.187
		c-0.142,0.142-0.423,0.167-0.624,0.167H6.727c-0.201,0-0.516,0.023-0.699-0.061L4.097,6.77C3.914,6.687,3.674,6.73,3.565,6.839
		C3.455,6.949,3.488,7.16,3.637,7.294l1.422,1.817c0.149,0.135,0.176,0.382,0.059,0.546l-1.401,1.942
		C3.6,11.762,3.5,12.062,3.5,12.263v0.063c0,0.201,0,0.531,0,0.731v2.349c0,0.201,0,0.402,0,0.446c0,0.045,0,0.246,0,0.446v2.136
		v0.731v0.731c0,0.402,0.329,0.731,0.731,0.731h0.731c0.402,0,0.731-0.329,0.731-0.731v-0.731c0-0.224,0-0.473,0-0.731
		c0-0.743,0-1.577,0-2.216l1.539-2.699c0.149-0.134,0.456-0.225,0.656-0.201l6.275,1.316c0.2,0.024,0.309,0.209,0.309,0.41v3.39
		v0.731v0.731c0,0.402,0.329,0.731,0.731,0.731h0.731c0.402,0,0.731-0.329,0.731-0.731v-0.731v-0.731v-3.39c0-0.201,0-0.531,0-0.731
		v-2.844C16.667,11.268,16.512,10.986,16.37,10.843z"/>
</g>
</svg>
